<svg width="24" height="24" viewBox="0 0 24 24" fill="none" xmlns="http://www.w3.org/2000/svg">
<path d="M16.44 5.82C15.7566 5.03953 15.3799 4.0374 15.38 3H12.29V15.4C12.2667 16.0712 11.9835 16.7071 11.5003 17.1735C11.0171 17.6399 10.3716 17.9004 9.7 17.9C8.28 17.9 7.1 16.74 7.1 15.3C7.1 13.58 8.76 12.29 10.47 12.82V9.66C7.02 9.2 4 11.88 4 15.3C4 18.63 6.76 21 9.69 21C12.83 21 15.38 18.45 15.38 15.3V9.01C16.633 9.90985 18.1374 10.3926 19.68 10.39V7.3C19.68 7.3 17.8 7.39 16.44 5.82Z" fill="white"/>
</svg>
