<svg width="24" height="24" viewBox="0 0 24 24" fill="none" xmlns="http://www.w3.org/2000/svg">
<path d="M21.8984 7.38281C22.3672 9.02344 22.3672 12.5391 22.3672 12.5391C22.3672 12.5391 22.3672 16.0156 21.8984 17.6953C21.6641 18.6328 20.9219 19.3359 20.0234 19.5703C18.3438 20 11.7031 20 11.7031 20C11.7031 20 5.02344 20 3.34375 19.5703C2.44531 19.3359 1.70312 18.6328 1.46875 17.6953C1 16.0156 1 12.5391 1 12.5391C1 12.5391 1 9.02344 1.46875 7.38281C1.70312 6.44531 2.44531 5.70312 3.34375 5.46875C5.02344 5 11.7031 5 11.7031 5C11.7031 5 18.3438 5 20.0234 5.46875C20.9219 5.70312 21.6641 6.44531 21.8984 7.38281ZM9.51562 15.7031L15.0625 12.5391L9.51562 9.375V15.7031Z" fill="white"/>
</svg>
